<svg width="254" height="78" viewBox="0 0 254 78" fill="none" xmlns="http://www.w3.org/2000/svg">
<path d="M100.176 26.4062L106.75 44.9688L113.289 26.4062H120.215V52H114.924V45.0039L115.451 32.9277L108.543 52H104.922L98.0312 32.9453L98.5586 45.0039V52H93.2852V26.4062H100.176ZM131.588 44.8105L135.104 32.9805H140.553L132.906 54.9531L132.484 55.9551C131.348 58.4395 129.473 59.6816 126.859 59.6816C126.121 59.6816 125.371 59.5703 124.609 59.3477V55.498L125.383 55.5156C126.344 55.5156 127.059 55.3691 127.527 55.0762C128.008 54.7832 128.383 54.2969 128.652 53.6172L129.25 52.0527L122.588 32.9805H128.055L131.588 44.8105ZM142.891 52V26.4062H150.766C153.016 26.4062 155.025 26.916 156.795 27.9355C158.576 28.9434 159.965 30.3848 160.961 32.2598C161.957 34.123 162.455 36.2441 162.455 38.623V39.8008C162.455 42.1797 161.963 44.2949 160.979 46.1465C160.006 47.998 158.629 49.4336 156.848 50.4531C155.066 51.4727 153.057 51.9883 150.818 52H142.891ZM148.164 30.6777V47.7637H150.713C152.775 47.7637 154.352 47.0898 155.441 45.7422C156.531 44.3945 157.088 42.4668 157.111 39.959V38.6055C157.111 36.0039 156.572 34.0352 155.494 32.6992C154.416 31.3516 152.84 30.6777 150.766 30.6777H148.164ZM174.725 52.3516C171.936 52.3516 169.662 51.4961 167.904 49.7852C166.158 48.0742 165.285 45.7949 165.285 42.9473V42.4551C165.285 40.5449 165.654 38.8398 166.393 37.3398C167.131 35.8281 168.174 34.668 169.521 33.8594C170.881 33.0391 172.428 32.6289 174.162 32.6289C176.764 32.6289 178.809 33.4492 180.297 35.0898C181.797 36.7305 182.547 39.0566 182.547 42.0684V44.1426H170.436C170.6 45.3848 171.092 46.3809 171.912 47.1309C172.744 47.8809 173.793 48.2559 175.059 48.2559C177.016 48.2559 178.545 47.5469 179.646 46.1289L182.143 48.9238C181.381 50.002 180.35 50.8457 179.049 51.4551C177.748 52.0527 176.307 52.3516 174.725 52.3516ZM174.145 36.7422C173.137 36.7422 172.316 37.082 171.684 37.7617C171.062 38.4414 170.664 39.4141 170.488 40.6797H177.555V40.2754C177.531 39.1504 177.227 38.2832 176.641 37.6738C176.055 37.0527 175.223 36.7422 174.145 36.7422ZM194.201 52.3516C191.412 52.3516 189.139 51.4961 187.381 49.7852C185.635 48.0742 184.762 45.7949 184.762 42.9473V42.4551C184.762 40.5449 185.131 38.8398 185.869 37.3398C186.607 35.8281 187.65 34.668 188.998 33.8594C190.357 33.0391 191.904 32.6289 193.639 32.6289C196.24 32.6289 198.285 33.4492 199.773 35.0898C201.273 36.7305 202.023 39.0566 202.023 42.0684V44.1426H189.912C190.076 45.3848 190.568 46.3809 191.389 47.1309C192.221 47.8809 193.27 48.2559 194.535 48.2559C196.492 48.2559 198.021 47.5469 199.123 46.1289L201.619 48.9238C200.857 50.002 199.826 50.8457 198.525 51.4551C197.225 52.0527 195.783 52.3516 194.201 52.3516ZM193.621 36.7422C192.613 36.7422 191.793 37.082 191.16 37.7617C190.539 38.4414 190.141 39.4141 189.965 40.6797H197.031V40.2754C197.008 39.1504 196.703 38.2832 196.117 37.6738C195.531 37.0527 194.699 36.7422 193.621 36.7422ZM210.76 47.9043H220.059V52H204.273V48.9062L213.221 37.0938H204.537V32.9805H219.777V35.9863L210.76 47.9043ZM231.713 52.3516C228.924 52.3516 226.65 51.4961 224.893 49.7852C223.146 48.0742 222.273 45.7949 222.273 42.9473V42.4551C222.273 40.5449 222.643 38.8398 223.381 37.3398C224.119 35.8281 225.162 34.668 226.51 33.8594C227.869 33.0391 229.416 32.6289 231.15 32.6289C233.752 32.6289 235.797 33.4492 237.285 35.0898C238.785 36.7305 239.535 39.0566 239.535 42.0684V44.1426H227.424C227.588 45.3848 228.08 46.3809 228.9 47.1309C229.732 47.8809 230.781 48.2559 232.047 48.2559C234.004 48.2559 235.533 47.5469 236.635 46.1289L239.131 48.9238C238.369 50.002 237.338 50.8457 236.037 51.4551C234.736 52.0527 233.295 52.3516 231.713 52.3516ZM231.133 36.7422C230.125 36.7422 229.305 37.082 228.672 37.7617C228.051 38.4414 227.652 39.4141 227.477 40.6797H234.543V40.2754C234.52 39.1504 234.215 38.2832 233.629 37.6738C233.043 37.0527 232.211 36.7422 231.133 36.7422ZM253.123 37.7441C252.432 37.6504 251.822 37.6035 251.295 37.6035C249.373 37.6035 248.113 38.2539 247.516 39.5547V52H242.436V32.9805H247.234L247.375 35.248C248.395 33.502 249.807 32.6289 251.611 32.6289C252.174 32.6289 252.701 32.7051 253.193 32.8574L253.123 37.7441Z" fill="white"/>
<path d="M47.8302 60.7587H62.049V56.4525H47.8237V60.7587H47.8302ZM15.9478 60.7587H30.16V56.4525H15.9445V60.7587H15.9575H15.9478ZM0 60.7587H14.2188V56.4525H0V60.7587ZM31.8825 60.7587H46.1175V56.4525H31.8825V60.7587ZM63.7812 60.7587H78V56.4525H63.7812V60.7587ZM63.7812 55.1557H78V50.8657H63.7812V55.2207V55.1882V55.1557ZM31.8857 55.1557H46.1533V50.8657H31.8825V55.2207V55.1882L31.8857 55.1557ZM0.00325 55.1557H14.2382V50.8657H0V55.2207V55.1882L0.00325 55.1557ZM15.9607 55.1557H30.1958V50.8657H15.9575V55.2207L15.964 55.1882L15.9607 55.1557ZM47.9082 55.1557H62.1432V50.8657H47.8433V55.2207L47.8985 55.1882L47.9082 55.1557ZM47.9082 49.5657H62.1432V45.2757H47.8433V49.5982H47.8985L47.9082 49.5657ZM16.042 49.5657H30.212V45.2757H15.9575V49.5982H16.0095L16.042 49.5657ZM0.0975 49.5657H14.2675V45.2757H0V49.5982H0.052L0.0975 49.5657ZM31.98 49.5657H46.215V45.2757H31.915V49.5982H31.967L31.98 49.5657ZM63.9113 49.5657H78V45.2757H63.7812V49.5982H63.869L63.9113 49.5657ZM63.9113 43.9757H78V39.65H63.7812V43.9595H63.869L63.9113 43.9757ZM32.0287 43.9757H46.2085V39.65H31.9085V43.9595H32.0158L32.0287 43.9757ZM0.14625 43.9757H14.3V39.65H0V43.9595H0.0975L0.14625 43.9757ZM48.0187 43.9757H62.2538V39.65H47.8563V43.9595H47.9992L48.0187 43.9757ZM48.0187 38.3857H62.2538V34.0632H47.8563V38.3532H47.9992L48.0187 38.3857ZM0.14625 38.3857H14.3V34.0957H0V38.3857H0.0975H0.14625ZM32.0287 38.3857H46.2637V34.0957H31.8825V38.3857H31.9865H32.0287ZM63.9113 38.3857H78V34.0632H63.7812V38.3792L63.869 38.3727L63.9113 38.3857ZM31.8825 32.76H46.1175V28.4505H31.8825V32.76ZM63.7812 32.7535H78V28.4472H63.7812V32.7535ZM31.8825 27.1537H46.1175V22.841H31.8825V27.1537ZM63.7812 27.1537H78V22.841H63.7812V27.1537ZM63.7812 21.5475H78V17.238H63.7812V21.5475Z" fill="#FFFBFB"/>
</svg>
