<svg width="78" height="47" viewBox="0 0 78 47" fill="none" xmlns="http://www.w3.org/2000/svg">
<rect y="18" width="14" height="5" fill="white"/>
<rect x="64" y="18" width="14" height="5" fill="white"/>
<rect x="48" y="18" width="14" height="5" fill="white"/>
<rect x="32" y="18" width="14" height="5" fill="white"/>
<rect x="16" y="30" width="14" height="5" fill="white"/>
<rect x="64" width="14" height="5" fill="white"/>
<rect x="32" y="6" width="14" height="5" fill="white"/>
<rect y="24" width="14" height="5" fill="white"/>
<rect x="64" y="24" width="14" height="5" fill="white"/>
<rect x="48" y="24" width="14" height="5" fill="white"/>
<rect x="32" y="24" width="14" height="5" fill="white"/>
<rect x="16" y="36" width="14" height="5" fill="white"/>
<rect x="64" y="6" width="14" height="5" fill="white"/>
<rect x="32" y="12" width="14" height="5" fill="white"/>
<rect y="30" width="14" height="5" fill="white"/>
<rect x="64" y="30" width="14" height="5" fill="white"/>
<rect x="48" y="30" width="14" height="5" fill="white"/>
<rect x="32" y="30" width="14" height="5" fill="white"/>
<rect x="16" y="42" width="14" height="5" fill="white"/>
<rect x="64" y="12" width="14" height="5" fill="white"/>
<rect y="36" width="14" height="5" fill="white"/>
<rect x="64" y="36" width="14" height="5" fill="white"/>
<rect x="48" y="36" width="14" height="5" fill="white"/>
<rect x="32" y="36" width="14" height="5" fill="white"/>
<rect y="42" width="14" height="5" fill="white"/>
<rect x="64" y="42" width="14" height="5" fill="white"/>
<rect x="48" y="42" width="14" height="5" fill="white"/>
<rect x="32" y="42" width="14" height="5" fill="white"/>
</svg>
